<?xml version="1.0" encoding="utf-8"?>
<!-- Generator: Adobe Illustrator 25.4.1, SVG Export Plug-In . SVG Version: 6.00 Build 0)  -->
<svg version="1.1" id="Layer_1" xmlns="http://www.w3.org/2000/svg" xmlns:xlink="http://www.w3.org/1999/xlink" x="0px" y="0px"
	 viewBox="0 0 182 182" style="enable-background:new 0 0 182 182;" xml:space="preserve">
<style type="text/css">
	.st0{fill:#ED585B;}
	.st1{fill:#FFFFFF;}
</style>
<path class="st0" d="M6.8,95.9V85.4c0.5-2.9,1-5.8,1.5-8.7C16.1,31,59.4,0.3,105,8.1c0.7,0.1,1.5,0.3,2.2,0.4
	c44.8,8.4,74.6,51.3,66.7,96.2c-6.2,35.3-27.5,57.7-61.8,67.7c-5,1.4-10.2,2-15.3,3H85.6c-1.9-0.3-3.8-0.7-5.8-1
	c-34.3-4.4-63.2-30.8-70.6-64.6C8.2,105.2,7.6,100.5,6.8,95.9z M80.5,92.8c0.5-4.7,0.7-8.4,1.4-12.1c2-9.9,0.7-9.4,10.7-8
	c4.7,0.6,7.5-1.2,8.6-5.7c1.4-5.3,2.8-10.6,3.9-16c0.3-1.7-0.2-3.5-1.3-4.9c-5.9-6.6-15.4-7.3-23-2c-6.1,4.3-10.7,10.3-13.3,17.3
	c-8,21.3-7.3,42.5,1.9,63.3c3.4,7.7,9.6,12.6,17.3,15.7c5.2,2,10,1.1,14.6-1.9c3.7-2.4,4.6-5.1,3.5-9.4c-0.9-3.6-1.9-7.2-2.9-10.8
	c-2.3-8.2-4.4-9.5-12.9-8c-0.3,0-0.5,0.2-0.7,0.2c-2.7,0.6-4.7,0-5.2-3.2C82.3,102.2,81.3,97,80.5,92.8z"/>
<path class="st1" d="M80.5,92.8c0.8,4.3,1.7,9.4,2.6,14.5c0.5,3.1,2.5,3.7,5.2,3.2c0.3,0,0.5-0.2,0.7-0.2c8.5-1.4,10.7-0.1,12.9,8
	c1,3.6,1.9,7.2,2.9,10.8c1.1,4.3,0.2,6.9-3.5,9.4c-4.5,3-9.4,3.9-14.6,1.9c-7.8-3-13.9-8-17.3-15.7c-9.2-20.8-10-42-1.9-63.3
	c2.6-7,7.2-13,13.2-17.3c7.6-5.3,17.2-4.6,23,2c1.1,1.4,1.5,3.2,1.3,4.9c-1,5.4-2.5,10.7-3.9,15.9c-1.2,4.5-3.9,6.3-8.6,5.7
	c-10-1.4-8.7-1.8-10.7,8C81.2,84.3,81.1,88.1,80.5,92.8z"/>
</svg>
